<svg width="14" height="11" viewBox="0 -0.5 14 12" fill="none" xmlns="http://www.w3.org/2000/svg"><path fill-rule="evenodd" clip-rule="evenodd" d="M13.5 1.992a5.532 5.532 0 0 1-1.532.4c.55-.314.974-.812 1.173-1.406a5.497 5.497 0 0 1-1.694.617A2.725 2.725 0 0 0 9.5.8C8.027.8 6.833 1.939 6.833 3.343c0 .2.024.394.07.58-2.217-.106-4.183-1.119-5.498-2.658-.23.376-.361.813-.361 1.28 0 .881.47 1.66 1.186 2.116a2.753 2.753 0 0 1-1.208-.318v.032c0 1.232.92 2.26 2.14 2.494a2.794 2.794 0 0 1-1.205.044c.34 1.01 1.324 1.745 2.492 1.766a5.518 5.518 0 0 1-3.313 1.089A5.57 5.57 0 0 1 .5 9.732a7.817 7.817 0 0 0 4.088 1.143c4.906 0 7.589-3.876 7.589-7.237 0-.11-.003-.22-.008-.329A5.284 5.284 0 0 0 13.5 1.992Z" fill="#fff"/></svg>